<svg width="18" height="13" viewBox="0 0 18 13" fill="none" xmlns="http://www.w3.org/2000/svg">
<path opacity="0.4" d="M17.5065 7.17313C16.602 4.52427 12.1505 2.80822 7.53525 3.32802C2.91998 3.84782 -0.0215375 6.42547 0.882998 9.06721C1.78753 11.7089 6.23899 13.4321 10.8186 12.9052C15.3983 12.3783 18.411 9.84335 17.5065 7.17313Z" fill="#277208"/>
<path d="M16.8875 4.05431C15.9829 1.41258 11.5315 -0.3106 6.95184 0.216323C2.37219 0.743246 -0.612072 3.30666 0.292463 5.94839C1.197 8.59013 5.64845 10.3133 10.2637 9.7935C14.879 9.2737 17.792 6.70317 16.8875 4.05431ZM9.93607 8.68269C6.18261 9.08144 2.536 7.76414 1.78816 5.73477C1.04031 3.70541 3.49037 1.72588 7.24384 1.32713C10.9973 0.928379 14.6439 2.24569 15.3918 4.27505C16.1396 6.30442 13.6895 8.27682 9.93607 8.68269Z" fill="#FFE07D"/>
<path d="M13.3616 7.69294C12.2773 8.23629 11.1008 8.57198 9.89302 8.6827C7.65846 8.96953 5.38985 8.55919 3.39746 7.50781L3.74647 9.0245C5.79128 9.78811 7.9891 10.0518 10.1566 9.79351C11.3456 9.66464 12.5094 9.36237 13.6109 8.89632L13.3616 7.69294Z" fill="url(#paint0_linear_37_5956)"/>
<path d="M6.9019 0.216287C5.18594 0.370007 3.53213 0.93416 2.08008 1.86114L2.40772 3.28525C3.74439 2.12274 5.43178 1.44093 7.20103 1.34847C8.8014 1.16626 10.4221 1.30915 11.9659 1.76858L11.6667 0.49399C10.106 0.130043 8.49439 0.0361171 6.9019 0.216287Z" fill="url(#paint1_linear_37_5956)"/>
<path d="M8.5969 10.0214C4.58703 10.0214 0.98312 8.36939 0.171175 5.99824C0.0158305 5.54667 -0.0322189 5.06513 0.030828 4.59178C0.0938748 4.11843 0.266293 3.66625 0.53442 3.27106C1.57428 1.61908 3.96738 0.42282 6.94451 0.0952736C11.574 -0.43877 16.0896 1.32714 17.0155 4.01872C17.1707 4.46993 17.2194 4.95094 17.1576 5.42409C17.0958 5.89724 16.9253 6.34966 16.6593 6.74589C15.6124 8.39787 13.2193 9.59412 10.2493 9.92879C9.70068 9.99116 9.149 10.0221 8.5969 10.0214ZM8.5969 0.259044C8.05189 0.258333 7.5073 0.289244 6.96588 0.351615C4.11695 0.672041 1.73808 1.84694 0.748081 3.41347C0.503012 3.77727 0.345307 4.19276 0.287243 4.62752C0.229178 5.06227 0.272322 5.50457 0.413331 5.91991C1.30362 8.50468 5.69811 10.1923 10.2208 9.67245C13.0697 9.3449 15.4414 8.17714 16.4315 6.61061C16.6765 6.2468 16.8342 5.83132 16.8923 5.39656C16.9504 4.9618 16.9072 4.51951 16.7662 4.10416C15.9899 1.82558 12.4999 0.251927 8.5969 0.251927V0.259044ZM8.5969 8.88919C5.29926 8.88919 2.33637 7.61461 1.66687 5.78462C1.54409 5.45007 1.50205 5.09126 1.54413 4.73739C1.5862 4.38353 1.71122 4.04459 1.90902 3.74813C2.72097 2.44507 4.75795 1.46954 7.2294 1.20608C11.0327 0.800209 14.7506 2.16025 15.5127 4.23946C15.6349 4.57411 15.6766 4.93281 15.6346 5.28657C15.5925 5.64034 15.4678 5.97926 15.2705 6.27594C14.4586 7.57901 12.4216 8.55452 9.95013 8.81798C9.50056 8.86398 9.04881 8.88537 8.5969 8.88207V8.88919ZM8.5969 1.39122C8.14722 1.39008 7.69781 1.41385 7.25077 1.46242C4.85767 1.71876 2.89192 2.64445 2.12271 3.88343C1.9464 4.14637 1.83451 4.44714 1.79615 4.76136C1.75779 5.07559 1.79402 5.39443 1.90189 5.69205C2.61413 7.67157 6.22514 8.96039 9.91451 8.54028C12.3076 8.28394 14.2734 7.35114 15.0426 6.11216C15.2194 5.84945 15.3316 5.54866 15.37 5.23433C15.4084 4.92001 15.3718 4.60106 15.2634 4.30354C14.6366 2.58748 11.7877 1.3841 8.604 1.3841L8.5969 1.39122Z" fill="#021433"/>
<path d="M17.0437 5.03699C17.0437 7.32269 14.266 9.36629 10.2347 9.82913C5.64795 10.3489 1.1965 8.63288 0.263478 5.98402C0.153196 5.67314 0.0977602 5.34547 0.0996564 5.01562V6.4611C0.0989358 6.80015 0.154294 7.13698 0.263478 7.45798C1.16801 10.1068 5.61946 11.8229 10.2347 11.3031C14.2232 10.8403 17.0009 8.83226 17.0437 6.57503V5.03699Z" fill="#ED7F07"/>
<path d="M10.2143 9.8149C9.92232 9.8149 9.63743 9.87186 9.35254 9.8861V11.3885C9.63743 11.3885 9.92232 11.3885 10.2143 11.3173C14.2028 10.8616 16.9805 8.85361 17.0233 6.58927V5.03699C17.0518 7.31557 14.2669 9.35918 10.2143 9.8149Z" fill="#E0610A"/>
<path d="M14.8008 8.28397V9.78641C16.4247 8.88922 17.0229 7.90658 17.0443 6.56791V5.03699C17.0514 6.36141 16.4532 7.37966 14.8008 8.28397Z" fill="#021433"/>
<path d="M8.59715 11.538C4.58728 11.538 0.983374 9.89317 0.171429 7.5149C0.0518608 7.1816 -0.00605385 6.82933 0.000500079 6.4753V5.03694C0.000500079 5.00295 0.013995 4.97035 0.0380375 4.94631C0.06208 4.92228 0.0946954 4.90878 0.128697 4.90878C0.163386 4.90873 0.196781 4.922 0.221964 4.94585C0.247147 4.9697 0.262197 5.00231 0.264023 5.03694C0.263825 5.34222 0.314364 5.64541 0.413585 5.93413C1.30388 8.5189 5.69836 10.2065 10.2139 9.68668C14.1027 9.2452 16.9231 7.28705 16.916 5.02982C16.9155 5.01214 16.919 4.99455 16.9265 4.97849C16.9339 4.96242 16.9449 4.9483 16.9587 4.93725C16.9691 4.92437 16.982 4.91388 16.9968 4.9065C17.0115 4.89913 17.0277 4.89504 17.0442 4.89453C17.0789 4.89636 17.1115 4.91141 17.1353 4.93659C17.1592 4.96177 17.1725 4.99514 17.1724 5.02982V6.58922C17.1083 8.93901 14.1953 10.9684 10.2495 11.417C9.70149 11.4889 9.1498 11.5293 8.59715 11.538ZM0.242656 6.24744V6.46106C0.235398 6.78779 0.286029 7.11324 0.392219 7.42234C1.28251 10.0071 5.67699 11.6947 10.1925 11.1749C14.0315 10.7334 16.8519 8.80373 16.8947 6.57499V6.24744C16.097 8.09879 13.5329 9.57274 10.221 9.95014C5.74822 10.4557 1.36086 8.81085 0.242656 6.24744Z" fill="#021433"/>
<path d="M7.24314 2.33824C4.26601 2.65867 2.1222 3.96173 1.73047 5.5069C1.74357 5.5842 1.76263 5.66038 1.78746 5.73475C2.5353 7.76412 6.18191 9.08142 9.93538 8.68267C12.9125 8.36224 15.0563 7.05918 15.4481 5.51401C15.435 5.43671 15.4159 5.36054 15.3911 5.28616C14.6432 3.2568 10.9966 1.93949 7.24314 2.33824Z" fill="#FFCA36"/>
<path d="M7.24325 2.33825C10.9967 1.93238 14.6434 3.2568 15.3841 5.28617C15.3841 5.36449 15.4268 5.44282 15.4482 5.51402C15.5548 5.10427 15.5324 4.6716 15.3841 4.27504C14.6718 2.24567 10.9967 0.921245 7.24325 1.32712C3.62511 1.71163 1.23913 3.55587 1.72344 5.5069C2.12229 3.96174 4.26611 2.65868 7.24325 2.33825Z" fill="#ED7F07"/>
<path d="M6.91599 1.38409C3.48303 1.84693 1.21813 3.6342 1.72381 5.52115C2.1013 4.04007 4.1098 2.77261 6.91599 2.39522V1.38409Z" fill="#E0610A"/>
<path d="M3.52566 2.40942C2.2009 3.20693 1.51004 4.29637 1.79494 5.42143C2.08814 4.55397 2.70937 3.83576 3.52566 3.42054V2.40942Z" fill="#021433"/>
<path d="M15.4487 5.64221C15.4201 5.64333 15.3919 5.63481 15.3687 5.61803C15.3454 5.60125 15.3285 5.57717 15.3205 5.54963V5.49267C15.3082 5.43918 15.2915 5.38679 15.2707 5.33602C14.5584 3.35649 10.9545 2.06767 7.26517 2.48778C4.41624 2.79397 2.27955 4.02583 1.85933 5.55675C1.85276 5.58561 1.8364 5.61131 1.81303 5.62948C1.78966 5.64765 1.76073 5.65718 1.73113 5.65644C1.70276 5.65557 1.67547 5.64531 1.65356 5.62727C1.63165 5.60922 1.61636 5.58442 1.61007 5.55675C1.53041 5.22558 1.52484 4.88092 1.59379 4.54736C1.66273 4.21379 1.80449 3.89956 2.00891 3.62708C2.88496 2.37386 4.85784 1.4909 7.2367 1.22032C11.04 0.814449 14.7579 2.17448 15.5128 4.25368C15.6717 4.67498 15.6966 5.13504 15.5841 5.571C15.5721 5.59582 15.5526 5.61616 15.5282 5.62898C15.5038 5.64181 15.476 5.64644 15.4487 5.64221ZM8.59706 1.36986C8.14976 1.36885 7.70274 1.39261 7.25806 1.44106C4.92906 1.69028 3.04876 2.54474 2.21545 3.741C1.95042 4.09241 1.80334 4.5186 1.79523 4.95863C2.50746 3.53451 4.58719 2.48066 7.22957 2.19584C10.862 1.80421 14.4089 3.02895 15.3846 4.95151C15.3831 4.73004 15.3421 4.51063 15.2635 4.30353C14.6297 2.58747 11.7807 1.38409 8.59706 1.38409V1.36986Z" fill="#021433"/>
<path d="M7.81375 3.42772C5.51324 3.66982 3.71129 4.51005 2.82812 5.5639L3.21274 7.32268C5.24734 8.49084 7.61106 8.95396 9.93619 8.63998C11.0659 8.53336 12.1691 8.23477 13.1982 7.75704L12.3507 3.76951C10.8727 3.37517 9.33417 3.25927 7.81375 3.42772Z" fill="url(#paint2_linear_37_5956)"/>
<path d="M8.59651 8.8892C5.29887 8.8892 2.33598 7.61461 1.66648 5.78463C1.64654 5.72145 1.62989 5.65727 1.61662 5.59237V5.54253C1.60956 5.52175 1.60956 5.49921 1.61662 5.47843C2.03684 3.8407 4.29461 2.53051 7.24325 2.21721C11.0466 1.81134 14.7644 3.17137 15.5265 5.25058C15.5464 5.31135 15.5631 5.37315 15.5764 5.43571V5.49268C15.5834 5.51346 15.5834 5.53598 15.5764 5.55676C15.1562 7.18737 12.8984 8.50468 9.94975 8.81799C9.5003 8.86636 9.04855 8.89014 8.59651 8.8892ZM1.85878 5.51404L1.90151 5.67069C2.61374 7.65021 6.22476 8.93904 9.91412 8.51892C12.7631 8.21274 14.8998 6.99512 15.3129 5.47843L15.2701 5.32178C14.5579 3.34938 10.9469 2.06056 7.25751 2.47355C4.43707 2.77261 2.27187 3.99736 1.85878 5.51404Z" fill="#021433"/>
<path d="M5.37722 4.73791C5.34322 4.73791 5.31063 4.72441 5.28658 4.70037C5.26254 4.67633 5.24902 4.64373 5.24902 4.60973C5.24902 4.57574 5.26254 4.54314 5.28658 4.51911C5.31063 4.49507 5.34322 4.48157 5.37722 4.48157C5.41122 4.48157 5.44384 4.49507 5.46788 4.51911C5.49192 4.54314 5.50544 4.57574 5.50544 4.60973C5.50544 4.64373 5.49192 4.67633 5.46788 4.70037C5.44384 4.72441 5.41122 4.73791 5.37722 4.73791Z" fill="#021433"/>
<path d="M9.57227 5.99821L9.78593 5.89852C9.83025 5.71882 9.85651 5.53515 9.86428 5.35023V4.33911C9.84423 4.66501 9.78687 4.98754 9.69333 5.30038L9.57227 5.99821Z" fill="#EBFBFF"/>
<path d="M9.60804 6.15488C9.58484 6.16202 9.56002 6.16202 9.53681 6.15488H9.49408C9.47316 6.13993 9.45722 6.11903 9.44833 6.09491C9.43944 6.07078 9.43802 6.04454 9.44424 6.01959L9.60093 5.35025C9.68931 5.05106 9.74424 4.74299 9.76473 4.43169C9.76473 4.41486 9.76805 4.3982 9.77449 4.38265C9.78094 4.3671 9.79039 4.35297 9.80229 4.34107C9.8142 4.32917 9.82832 4.31973 9.84387 4.31328C9.85943 4.30684 9.87609 4.30353 9.89293 4.30353C9.92637 4.30525 9.958 4.3193 9.98168 4.34298C10.0054 4.36665 10.0194 4.39826 10.0211 4.43169V5.44282C10.0127 5.63472 9.98648 5.82541 9.94279 6.01246C9.93969 6.03265 9.93153 6.05172 9.91908 6.06791C9.90663 6.08409 9.89028 6.09686 9.87156 6.10503L9.6579 6.20472L9.60804 6.15488Z" fill="#021433"/>
<path d="M8.62559 5.22922C8.62559 5.22922 8.62559 5.22922 8.62559 5.27194C8.66875 5.03694 8.69258 4.79879 8.69682 4.55989C8.70112 4.43339 8.67162 4.30805 8.61135 4.19674C8.55248 4.09111 8.46951 4.00084 8.3692 3.93327C8.21307 3.81554 8.02343 3.75069 7.82789 3.74814C7.6287 3.74207 7.43093 3.78357 7.25099 3.86919C7.06921 3.94723 6.90823 4.06672 6.78091 4.2181C6.66163 4.36675 6.56997 4.53556 6.51026 4.71654L5.35645 4.58836V5.59948L6.51026 5.72766C6.56997 5.54668 6.66163 5.37787 6.78091 5.22922C6.91026 5.08002 7.07071 4.96093 7.25099 4.88031C7.43093 4.79469 7.6287 4.75319 7.82789 4.75926C8.02285 4.76508 8.21152 4.8296 8.3692 4.94439C8.47564 5.01813 8.56342 5.11565 8.62559 5.22922Z" fill="#ED7F07"/>
<path d="M7.4572 3.89764C7.39309 3.89764 7.32898 3.89765 7.26488 3.96174C7.0846 4.04235 6.92417 4.16144 6.79482 4.31064C6.67555 4.45929 6.58388 4.6281 6.52417 4.80908H6.36035V5.82021H6.52417C6.58394 5.64143 6.67565 5.47496 6.79482 5.32889C6.92214 5.17751 7.0831 5.05802 7.26488 4.97997C7.32651 4.95005 7.39093 4.92621 7.4572 4.90878V3.89764Z" fill="#E0610A"/>
<path d="M12.5852 5.64219C12.5506 5.64037 12.518 5.62531 12.4941 5.60013C12.4703 5.57496 12.457 5.54158 12.457 5.5069C12.457 5.47291 12.4705 5.4403 12.4946 5.41626C12.5186 5.39223 12.5512 5.37872 12.5852 5.37872C12.6192 5.37872 12.6518 5.39223 12.6759 5.41626C12.6999 5.4403 12.7134 5.47291 12.7134 5.5069C12.7135 5.54158 12.7002 5.57496 12.6763 5.60013C12.6525 5.62531 12.6199 5.64037 12.5852 5.64219Z" fill="#021433"/>
<path d="M8.38965 6.74587V7.757L8.99505 8.19847L12.5776 6.52513V5.5069L8.99505 7.18023L8.38965 6.74587Z" fill="#ED7F07"/>
<path d="M9.73633 7.91367L12.5781 6.58925V5.57812L9.73633 6.90255V7.91367Z" fill="#E0610A"/>
<path d="M11.7871 6.9381L12.5777 6.56782V5.5567L11.7871 5.92697V6.9381Z" fill="#021433"/>
<path d="M6.52467 5.92705L5.37085 5.79888C5.33938 5.79536 5.3103 5.78031 5.28926 5.75665C5.26822 5.73298 5.2567 5.70237 5.25689 5.67071V4.65247C5.25634 4.63478 5.25991 4.6172 5.26733 4.60113C5.27474 4.58506 5.2858 4.57095 5.29962 4.5599C5.313 4.54757 5.32872 4.53806 5.34586 4.53194C5.36299 4.52582 5.38117 4.52322 5.39933 4.52429L6.45344 4.64534C6.52018 4.48808 6.6063 4.33978 6.70983 4.20387C6.84788 4.03689 7.02365 3.90509 7.22264 3.81935C7.41966 3.72303 7.63735 3.67659 7.85654 3.68407C8.07706 3.68848 8.29088 3.76056 8.46905 3.89056C8.58747 3.97098 8.68513 4.07836 8.75396 4.20387C8.82203 4.33072 8.85636 4.47293 8.85366 4.61686C8.85194 4.8559 8.8281 5.09427 8.78243 5.32892C8.77937 5.3562 8.76713 5.38161 8.74772 5.40102C8.72831 5.42043 8.70288 5.43267 8.6756 5.43572C8.64838 5.43996 8.62053 5.43533 8.59616 5.4225C8.57178 5.40968 8.55219 5.38935 8.54027 5.36453V5.32892C8.48916 5.24056 8.4185 5.16506 8.33372 5.10818C8.19782 5.00616 8.03356 4.94892 7.86367 4.9444C7.68602 4.94029 7.51004 4.97939 7.35086 5.05834C7.18666 5.12931 7.04058 5.23641 6.92351 5.37164C6.81665 5.51189 6.73252 5.66808 6.67423 5.83448C6.6709 5.8506 6.66431 5.86588 6.65488 5.87937C6.64545 5.89286 6.63337 5.90429 6.61937 5.91295C6.60537 5.92162 6.58975 5.92734 6.57346 5.92976C6.55718 5.93219 6.54058 5.93126 6.52467 5.92705ZM5.49905 5.54966L6.4392 5.65646C6.50594 5.4992 6.59207 5.3509 6.69559 5.21499C6.83718 5.05176 7.01202 4.92067 7.2084 4.83048C7.40769 4.74089 7.62379 4.69477 7.8423 4.69519C8.06228 4.70265 8.27523 4.77444 8.45481 4.90168L8.55453 4.98712C8.56539 4.8687 8.56539 4.74952 8.55453 4.6311C8.55629 4.52474 8.53182 4.41959 8.4833 4.32492C8.43219 4.23655 8.36153 4.16105 8.27675 4.10418C8.14085 4.00215 7.97657 3.94492 7.80667 3.94041C7.62872 3.9329 7.4519 3.97218 7.29387 4.05433C7.12823 4.12278 6.98161 4.23027 6.86652 4.36764C6.75971 4.50532 6.67558 4.65916 6.61726 4.82335C6.60774 4.85083 6.58916 4.87426 6.56457 4.88978C6.53998 4.90531 6.51084 4.91202 6.48193 4.90881L5.47055 4.80199L5.49905 5.54966Z" fill="#021433"/>
<path d="M8.99561 8.3694C8.97241 8.37653 8.94759 8.37653 8.92438 8.3694L8.31185 7.93505C8.29471 7.92289 8.28064 7.9069 8.27075 7.88836C8.26086 7.86982 8.25543 7.84924 8.25488 7.82824V6.81C8.2558 6.78645 8.26287 6.76355 8.27536 6.74357C8.28785 6.72359 8.30534 6.70721 8.32611 6.69607C8.34668 6.68419 8.37002 6.67794 8.39377 6.67794C8.41753 6.67794 8.44086 6.68419 8.46144 6.69607L9.00985 7.0877L12.5283 5.44285C12.548 5.43452 12.5695 5.43125 12.5908 5.43336C12.6121 5.43547 12.6326 5.44288 12.6503 5.45492C12.668 5.46696 12.6824 5.48323 12.6922 5.50227C12.702 5.5213 12.7068 5.5425 12.7063 5.5639V6.57502C12.7067 6.59978 12.7002 6.62415 12.6877 6.6455C12.6751 6.66684 12.6569 6.68434 12.6351 6.69607L9.07395 8.36228L8.99561 8.3694ZM8.51841 7.73566L9.00985 8.09169L12.4499 6.48956V5.77751L9.05258 7.3654C9.03335 7.3774 9.01115 7.38375 8.98848 7.38375C8.96582 7.38375 8.94361 7.3774 8.92438 7.3654L8.51841 7.08057V7.73566Z" fill="#021433"/>
<path d="M8.38992 6.87408C8.35591 6.87408 8.3233 6.86058 8.29926 6.83654C8.27521 6.8125 8.26172 6.77989 8.26172 6.7459C8.26172 6.71191 8.27521 6.67931 8.29926 6.65528C8.3233 6.63124 8.35591 6.61774 8.38992 6.61774C8.42392 6.61774 8.45653 6.63124 8.48057 6.65528C8.50462 6.67931 8.51811 6.71191 8.51811 6.7459C8.51811 6.77989 8.50462 6.8125 8.48057 6.83654C8.45653 6.86058 8.42392 6.87408 8.38992 6.87408Z" fill="#021433"/>
<path d="M12.578 5.5069L9.01686 7.18023L8.41146 6.74588L8.64649 5.39297C8.69785 5.12529 8.72646 4.85373 8.73197 4.58123C8.73627 4.45473 8.70675 4.32938 8.64649 4.21808C8.58761 4.11245 8.50465 4.02217 8.40433 3.95461C8.2482 3.83688 8.05859 3.77203 7.86305 3.76948C7.66386 3.76341 7.46609 3.8049 7.28614 3.89053C7.10437 3.96857 6.94338 4.08806 6.81607 4.23944C6.69679 4.38809 6.60512 4.5569 6.54541 4.73788L5.3916 4.6097C5.44762 4.41108 5.5367 4.22332 5.65512 4.0543C5.75895 3.91029 5.88662 3.78508 6.03261 3.68404C6.21899 3.5467 6.41956 3.42973 6.63088 3.33512C6.94457 3.18781 7.27807 3.08706 7.62087 3.03606C7.94151 2.98228 8.26888 2.98228 8.58952 3.03606C8.87333 3.08373 9.1432 3.19311 9.38009 3.35648C9.54807 3.46989 9.68713 3.62109 9.78606 3.79796C9.87328 3.96768 9.91962 4.15544 9.92139 4.34624C9.90134 4.67215 9.84399 4.99468 9.75046 5.30753L9.59377 5.97686L11.8302 4.93725L12.578 5.5069Z" fill="#FFE07D"/>
<path d="M12.578 5.49978L9.01686 7.17312L8.41146 6.73877L8.64649 5.38586C8.69794 5.11579 8.72655 4.84186 8.73197 4.56699C8.73501 4.44289 8.70553 4.32016 8.64649 4.21096C8.58808 4.10305 8.50513 4.01037 8.40433 3.94039C8.24494 3.82895 8.05732 3.76476 7.86305 3.75524C7.66297 3.74814 7.46438 3.79226 7.28614 3.88342C7.10437 3.96146 6.94338 4.08095 6.81607 4.23232C6.69545 4.38007 6.60364 4.54916 6.54541 4.73077L5.3916 4.6026C5.44762 4.40398 5.5367 4.21621 5.65512 4.04719C5.7605 3.90248 5.88786 3.77515 6.03261 3.6698C6.22067 3.53503 6.42097 3.41822 6.63088 3.32089C6.94469 3.17535 7.27829 3.07697 7.62087 3.02894C7.94152 2.9753 8.26887 2.9753 8.58952 3.02894C8.87378 3.0792 9.14359 3.191 9.38009 3.35649C9.54953 3.4682 9.68894 3.61979 9.78606 3.79797C9.87345 3.96508 9.91984 4.15057 9.92139 4.33914C9.90188 4.66744 9.84453 4.99239 9.75046 5.30754L9.59377 5.97687L11.8302 4.93015L12.578 5.49978Z" fill="url(#paint3_linear_37_5956)"/>
<path d="M8.99546 7.30844C8.97225 7.31558 8.94743 7.31558 8.92423 7.30844L8.3117 6.87409C8.29056 6.86107 8.27425 6.84151 8.26525 6.81837C8.25625 6.79524 8.25507 6.76979 8.26186 6.74591L8.49689 5.39301C8.54821 5.13252 8.5768 4.86806 8.58235 4.60262C8.58406 4.49853 8.55952 4.39569 8.51097 4.30359C8.46242 4.2115 8.39145 4.13312 8.30459 4.0757C8.16805 3.97579 8.00371 3.92102 7.83452 3.91904C7.65493 3.90972 7.47594 3.9465 7.31458 4.02586C7.15354 4.09876 7.01018 4.20564 6.89436 4.33916C6.7875 4.47941 6.70337 4.6356 6.64508 4.802C6.63454 4.82878 6.61575 4.85151 6.59141 4.86687C6.56708 4.88224 6.53847 4.88944 6.50975 4.88744L5.35594 4.75928C5.31926 4.75194 5.28642 4.73174 5.26335 4.70231C5.25456 4.6846 5.25 4.66511 5.25 4.64534C5.25 4.62558 5.25456 4.60608 5.26335 4.58838C5.32582 4.37858 5.41946 4.17936 5.54113 3.99737C5.65525 3.85101 5.78953 3.72156 5.93998 3.61286C6.13509 3.4733 6.34249 3.35175 6.55961 3.24972C6.88684 3.0972 7.23487 2.99402 7.59236 2.94353C7.92466 2.88626 8.26431 2.88626 8.59661 2.94353C8.89857 2.994 9.18558 3.11072 9.43704 3.28531C9.62082 3.41128 9.77412 3.57672 9.88575 3.76952C9.98444 3.95853 10.0358 4.16867 10.0353 4.38189C10.0153 4.72001 9.95554 5.05461 9.85725 5.37876L9.75042 5.83448L11.7945 4.88032C11.8142 4.86973 11.8363 4.86419 11.8586 4.86419C11.881 4.86419 11.903 4.86973 11.9227 4.88032L12.635 5.40725C12.6534 5.41937 12.6679 5.43658 12.6768 5.45681C12.6856 5.47703 12.6884 5.49939 12.6848 5.52117C12.6834 5.54366 12.676 5.56538 12.6635 5.58414C12.651 5.60289 12.6338 5.61802 12.6136 5.62799L9.05243 7.30132L8.99546 7.30844ZM8.52538 6.68896L9.00969 7.03074L12.3287 5.48558L11.8301 5.12955L9.69343 6.14067C9.67373 6.15126 9.65171 6.1568 9.62933 6.1568C9.60696 6.1568 9.58494 6.15126 9.56524 6.14067H9.5225C9.50158 6.12572 9.48564 6.10482 9.47675 6.08069C9.46786 6.05657 9.46642 6.03033 9.47264 6.00538L9.62933 5.33604C9.72404 5.03349 9.77911 4.71995 9.79315 4.40325C9.7976 4.23245 9.75838 4.06334 9.67919 3.91192C9.58755 3.75461 9.46081 3.62058 9.30884 3.52029C9.09646 3.36777 8.85343 3.2633 8.59661 3.21411C8.28973 3.16764 7.97758 3.16764 7.67069 3.21411C7.33988 3.25976 7.01802 3.35581 6.71631 3.49893C6.51085 3.59054 6.31518 3.70267 6.13227 3.8336C6.00042 3.93328 5.88299 4.0507 5.78328 4.18251C5.70452 4.29666 5.64218 4.4213 5.5981 4.55278L6.48839 4.64534C6.55512 4.49029 6.64129 4.34434 6.7448 4.21099C6.88285 4.04401 7.05862 3.91222 7.25761 3.82648C7.45511 3.73083 7.67204 3.68209 7.89148 3.68407C8.1127 3.69101 8.32648 3.76555 8.50402 3.89768C8.62418 3.97609 8.72225 4.08395 8.7889 4.21099C8.85759 4.33761 8.89198 4.47998 8.88863 4.62398C8.88367 4.90631 8.85267 5.18758 8.79603 5.46422L8.52538 6.68896Z" fill="#021433"/>
<defs>
<linearGradient id="paint0_linear_37_5956" x1="8.19078" y1="6.55366" x2="8.89556" y2="10.0998" gradientUnits="userSpaceOnUse">
<stop stop-color="white"/>
<stop offset="1" stop-color="white"/>
</linearGradient>
<linearGradient id="paint1_linear_37_5956" x1="6.70959" y1="0.202046" x2="7.2008" y2="2.69429" gradientUnits="userSpaceOnUse">
<stop stop-color="white"/>
<stop offset="1" stop-color="white"/>
</linearGradient>
<linearGradient id="paint2_linear_37_5956" x1="5.2782" y1="-0.901586" x2="9.10837" y2="9.04648" gradientUnits="userSpaceOnUse">
<stop stop-color="white"/>
<stop offset="1" stop-color="white"/>
</linearGradient>
<linearGradient id="paint3_linear_37_5956" x1="7.07959" y1="-0.0685126" x2="10.746" y2="9.82968" gradientUnits="userSpaceOnUse">
<stop stop-color="white"/>
<stop offset="1" stop-color="white"/>
</linearGradient>
</defs>
</svg>
