<svg width="31" height="23" viewBox="0 0 31 23" fill="none" xmlns="http://www.w3.org/2000/svg">
<path opacity="0.4" d="M0.277821 12.2679C1.81759 7.77091 9.39521 4.83759 17.2517 5.73456C25.1081 6.63153 30.1276 10.9952 28.5878 15.4315C27.048 19.8679 19.4704 22.8618 11.6139 21.977C3.75747 21.0921 -1.26195 16.8255 0.277821 12.2679Z" fill="#9E44C9"/>
<path d="M2.03591 6.97092C3.50293 2.69213 10.7168 -0.0957573 18.149 0.752728C25.5811 1.60121 30.4065 5.7588 28.9395 10.0497C27.4724 14.3406 20.2464 17.1285 12.8264 16.28C5.40642 15.4315 0.556755 11.2618 2.03591 6.97092ZM13.2993 14.4739C19.3614 15.1285 25.3022 12.983 26.5025 9.69819C27.7028 6.41334 23.7503 3.20123 17.664 2.54668C11.5776 1.89213 5.66104 4.0376 4.46074 7.33457C3.26045 10.6315 7.21294 13.8194 13.2993 14.4739Z" fill="#FFE07D"/>
<path d="M15.4824 16.6436C21.9809 16.6436 27.8248 13.9648 29.1463 10.1224C29.3964 9.38789 29.474 8.60565 29.3731 7.83633C29.2722 7.06701 28.9955 6.33125 28.5644 5.68604C26.867 3.00725 22.9872 1.07998 18.1739 0.534526C10.657 -0.32608 3.32181 2.53454 1.83053 6.9103C1.57776 7.64236 1.49876 8.42317 1.59976 9.19101C1.70077 9.95886 1.97901 10.6927 2.41251 11.3345C4.10989 14.0133 7.98964 15.9406 12.8029 16.4982C13.6928 16.5947 14.5873 16.6432 15.4824 16.6436ZM15.4824 0.813328C16.3698 0.81216 17.2565 0.864787 18.1376 0.970909C22.7448 1.49212 26.6245 3.39515 28.2006 5.92848C28.596 6.51627 28.8509 7.1871 28.9455 7.88911C29.0401 8.59113 28.9719 9.30551 28.7462 9.97696C27.3035 14.1709 20.1866 16.8982 12.8635 16.0376C8.25636 15.5042 4.37663 13.6133 2.80049 11.08C2.40233 10.4911 2.14589 9.81812 2.05124 9.11366C1.95659 8.40921 2.02628 7.69242 2.25489 7.01938C3.50368 3.3709 9.15354 0.813328 15.4702 0.813328H15.4824ZM15.4824 14.8133C20.8291 14.8133 25.6303 12.7406 26.7094 9.77088C26.9132 9.22832 26.9843 8.64491 26.9168 8.0693C26.8493 7.49368 26.6451 6.94256 26.3214 6.46182C25.012 4.3406 21.7021 2.76484 17.689 2.32848C11.5178 1.67393 5.49204 3.87997 4.25537 7.26178C4.05364 7.80267 3.98363 8.38381 4.05109 8.95712C4.11856 9.53043 4.32157 10.0794 4.64335 10.5588C5.96489 12.68 9.27478 14.2678 13.2758 14.6921C14.0084 14.7744 14.7451 14.8149 15.4824 14.8133ZM15.4824 2.6921C16.1977 2.6921 16.9252 2.6921 17.6526 2.80119C21.5324 3.21331 24.721 4.72848 25.9698 6.72848C26.2559 7.15279 26.436 7.63951 26.4951 8.14779C26.5541 8.65608 26.4904 9.17108 26.3093 9.64966C25.0968 12.8497 19.3258 14.9467 13.3364 14.2921C9.46879 13.88 6.28013 12.377 5.03134 10.3648C4.74326 9.94156 4.56097 9.45533 4.49979 8.94702C4.43861 8.43871 4.50031 7.92316 4.67973 7.44363C5.69816 4.59515 10.2568 2.65574 15.4702 2.65574L15.4824 2.6921Z" fill="#021433"/>
<path d="M1.76956 8.54668C1.76956 12.2558 6.29187 15.5648 12.8268 16.3163C20.2468 17.1648 27.4607 14.377 28.9399 10.0861C29.1178 9.58012 29.204 9.04653 29.1945 8.51031V10.9346C29.205 11.4827 29.1188 12.0284 28.9399 12.5467C27.4607 16.8376 20.2468 19.6254 12.8268 18.7769C6.35249 18.0376 1.85443 14.777 1.76956 11.1164V8.58304V8.54668Z" fill="#ED7F07"/>
<path d="M15.4819 19.1164C21.9805 19.1164 27.8243 16.4376 29.1458 12.583C29.3305 12.0408 29.4207 11.4709 29.4126 10.8982V8.47391C29.4126 8.41604 29.3896 8.36057 29.3487 8.31966C29.3078 8.27874 29.2522 8.25574 29.1944 8.25574C29.1365 8.25574 29.081 8.27874 29.04 8.31966C28.9991 8.36057 28.9761 8.41604 28.9761 8.47391C28.9744 8.97263 28.8925 9.46786 28.7336 9.9406C27.2908 14.1345 20.1619 16.8618 12.851 16.0012C6.55853 15.2739 1.9392 12.0982 1.99982 8.44968C1.99912 8.41984 1.99231 8.39045 1.9798 8.36334C1.96729 8.33624 1.94934 8.31199 1.92707 8.2921C1.87035 8.28826 1.81421 8.30554 1.76945 8.34059C1.71157 8.34059 1.65605 8.3636 1.61513 8.40452C1.5742 8.44543 1.55123 8.5009 1.55123 8.55877V11.1406C1.67247 14.9467 6.4009 18.2436 12.8025 18.9709C13.6919 19.0733 14.5866 19.1219 15.4819 19.1164ZM28.9761 10.6315V10.9466C28.9857 11.474 28.9036 11.9989 28.7336 12.4982C27.2908 16.68 20.1619 19.4073 12.851 18.5588C6.63127 17.8557 2.07256 14.7164 1.99982 11.1164V10.6073C3.30923 13.577 7.45568 15.9527 12.8146 16.5709C20.0527 17.3588 27.1696 14.7164 28.9761 10.583V10.6315Z" fill="#021433"/>
<path d="M17.6647 4.1951C22.5143 4.70419 25.9697 6.82542 26.6123 9.32239C26.6123 9.4436 26.5517 9.56481 26.5032 9.69814C25.2908 12.983 19.3863 15.1284 13.3 14.4739C8.4503 13.9648 4.99492 11.8436 4.36446 9.34662C4.38669 9.21898 4.41911 9.09332 4.46144 8.97086C5.66173 5.68602 11.5783 3.49207 17.6647 4.1951Z" fill="#FFCA36"/>
<path d="M15.4697 14.8134C20.8165 14.8134 25.6298 12.7406 26.7088 9.77092C26.7427 9.67157 26.7711 9.5704 26.7937 9.46789V9.38304C26.8057 9.34766 26.8057 9.30932 26.7937 9.27395C26.1148 6.60728 22.4532 4.48608 17.6642 3.97699C11.493 3.31032 5.46727 5.51638 4.2306 8.89819C4.19667 9.00165 4.16833 9.10686 4.14573 9.21336V9.29822V9.39517C4.82468 12.0497 8.4983 14.183 13.2752 14.6921C14.0038 14.7741 14.7365 14.8146 15.4697 14.8134ZM26.3815 9.32244C26.3685 9.40621 26.344 9.48781 26.3087 9.56488C25.0963 12.7649 19.3252 14.8497 13.3359 14.2073C8.76506 13.7224 5.27328 11.7831 4.60645 9.29822C4.62508 9.21186 4.64938 9.1268 4.67919 9.04364C5.89161 5.84364 11.6749 3.75881 17.6521 4.40124C22.2108 4.89821 25.7146 6.87396 26.3815 9.32244Z" fill="#021433"/>
<path d="M17.6645 4.19514C11.6024 3.5406 5.67368 5.68605 4.46126 8.9709C4.46126 9.10424 4.40066 9.22544 4.36428 9.34666C4.19064 8.68175 4.22447 7.9797 4.46126 7.33457C5.67368 4.0376 11.5781 1.89213 17.6645 2.54667C23.5326 3.17698 27.3638 6.18303 26.6121 9.32243C26.018 6.82546 22.502 4.70423 17.6645 4.19514Z" fill="#ED7F07"/>
<path d="M4.36375 9.55277C4.4136 9.5519 4.46178 9.53487 4.50113 9.50427C4.54048 9.47367 4.56887 9.43114 4.58198 9.38305V9.2861C4.59501 9.20366 4.61528 9.12253 4.64258 9.04366C5.855 5.84366 11.6382 3.75883 17.6276 4.40125C22.2226 4.8861 25.7387 6.88611 26.3691 9.37096C26.3827 9.41783 26.4115 9.4588 26.4511 9.48737C26.4906 9.51593 26.5386 9.53045 26.5874 9.52854C26.6361 9.53045 26.6841 9.51593 26.7237 9.48737C26.7632 9.4588 26.7921 9.41783 26.8056 9.37096C26.9307 8.83151 26.937 8.27129 26.8239 7.72918C26.7109 7.18708 26.4812 6.67608 26.1509 6.23157C24.7323 4.1952 21.5558 2.74064 17.6639 2.3164C11.4806 1.66186 5.46703 3.86793 4.23037 7.24974C3.9743 7.93293 3.94037 8.67945 4.13339 9.38305C4.1449 9.43433 4.17454 9.47975 4.21686 9.51093C4.25918 9.54211 4.31135 9.55696 4.36375 9.55277ZM15.4695 2.64366C16.1808 2.64366 16.9082 2.68006 17.6518 2.75278C21.4103 3.15279 24.4656 4.5467 25.8114 6.47397C26.2256 7.03396 26.4621 7.70535 26.4904 8.40124C25.278 6.15881 21.9559 4.41339 17.6882 3.96491C11.8322 3.3346 6.08538 5.29823 4.47287 8.38914C4.49084 8.0504 4.55614 7.71584 4.66686 7.39519C5.69741 4.59519 10.2561 2.65579 15.4695 2.65579V2.64366Z" fill="#021433"/>
<path d="M10.2561 9.95269L16.1363 8.86179L17.0942 8.66784L18.149 8.44967C17.9823 8.62435 17.8284 8.81067 17.6882 9.00724L17.1184 9.85574L18.7552 10.2073L20.2949 7.78302V9.39513L18.7552 11.8194L17.1184 11.4678V10.2557L16.1606 10.4497L10.2803 11.5527L9.57715 10.3406V8.72847L10.2561 9.95269Z" fill="#ED7F07"/>
<path d="M18.7429 12.0376C18.7788 12.0376 18.8143 12.0288 18.846 12.0119C18.8777 11.995 18.9048 11.9705 18.9247 11.9406L20.4645 9.51636C20.4754 9.47668 20.4754 9.43482 20.4645 9.39514V7.78304C20.4659 7.73583 20.4509 7.6896 20.4222 7.65209C20.3935 7.61458 20.3528 7.58805 20.3069 7.57696C20.2631 7.5591 20.2143 7.55789 20.1696 7.57352C20.125 7.58914 20.0875 7.62054 20.0644 7.66182L18.5974 9.91634L17.385 9.66181L17.773 9.07998C17.9034 8.89043 18.0494 8.71207 18.2094 8.54668C18.2361 8.50959 18.2504 8.46506 18.2504 8.41939C18.2504 8.37373 18.2361 8.3292 18.2094 8.29211C18.186 8.25327 18.1517 8.22221 18.1107 8.20281C18.0697 8.1834 18.0239 8.17652 17.9791 8.18302L15.9786 8.59514L10.2438 9.66181L9.62551 8.55877C9.60443 8.51533 9.56787 8.48131 9.52302 8.46337C9.47818 8.44544 9.42826 8.4449 9.38302 8.46182C9.3359 8.47253 9.29367 8.49858 9.26295 8.53588C9.23223 8.57317 9.21478 8.61957 9.2133 8.66786V10.28C9.20286 10.3156 9.20286 10.3535 9.2133 10.3891L9.90435 11.6012C9.92494 11.6426 9.95888 11.6758 10.0007 11.6956C10.0424 11.7154 10.0896 11.7206 10.1347 11.7103L16.7424 10.4982V11.4315C16.7421 11.4822 16.7604 11.5313 16.7939 11.5693C16.8275 11.6073 16.8739 11.6316 16.9243 11.6376L18.5489 12.0012L18.7429 12.0376ZM20.0644 9.38301L18.6338 11.577L17.3365 11.286V10.2679C17.3358 10.238 17.329 10.2086 17.3165 10.1815C17.3039 10.1544 17.286 10.1302 17.2637 10.1103L18.6944 10.4255C18.7381 10.4348 18.7836 10.4305 18.8248 10.4132C18.866 10.3959 18.9009 10.3663 18.9247 10.3285L20.0644 8.57091V9.38301ZM17.0334 10.0618L16.0877 10.2557L10.3529 11.3224L9.771 10.2679V9.55272L10.0498 10.0618C10.0704 10.1032 10.1044 10.1364 10.1461 10.1562C10.1879 10.176 10.2351 10.1812 10.2802 10.1709L17.5547 8.78908L17.482 8.88607L16.9243 9.73453C16.9062 9.76586 16.8967 9.80138 16.8967 9.83755C16.8967 9.87372 16.9062 9.90928 16.9243 9.94061C16.9326 9.96752 16.9466 9.99229 16.9654 10.0132C16.9843 10.0342 17.0075 10.0508 17.0334 10.0618Z" fill="#021433"/>
<path d="M9.54119 8.71636L10.2444 9.92849L16.1246 8.83758L17.0824 8.64364L18.1372 8.42547C17.9706 8.60014 17.8166 8.78646 17.6765 8.98303L17.1067 9.83153L18.7434 10.183L20.2832 7.75878L19.7134 6.7406L9.54119 8.71636Z" fill="#FFE07D"/>
<path d="M18.7436 10.4255C18.7795 10.4255 18.815 10.4167 18.8467 10.3998C18.8784 10.3829 18.9055 10.3584 18.9254 10.3285L20.4652 7.90429C20.4855 7.86928 20.4961 7.82956 20.4961 7.78913C20.4961 7.74871 20.4855 7.70899 20.4652 7.67398L19.8954 6.65577C19.8726 6.61342 19.8365 6.5798 19.7927 6.56007C19.7488 6.54034 19.6997 6.53562 19.6529 6.54668L9.49283 8.44972C9.45846 8.45499 9.426 8.46888 9.39844 8.49008C9.37088 8.51127 9.34912 8.53908 9.33521 8.57094C9.32007 8.60318 9.31223 8.63834 9.31223 8.67396C9.31223 8.70957 9.32007 8.74474 9.33521 8.77698L10.0263 9.9891C10.0469 10.0305 10.0808 10.0638 10.1226 10.0835C10.1643 10.1033 10.2116 10.1085 10.2567 10.0982L17.5312 8.71639L17.4584 8.81338L16.9007 9.66184C16.8826 9.69317 16.8731 9.72869 16.8731 9.76486C16.8731 9.80103 16.8826 9.83659 16.9007 9.86792C16.9139 9.90142 16.9352 9.93114 16.9627 9.9544C16.9902 9.97767 17.0231 9.99374 17.0583 10.0012L18.683 10.3528L18.7436 10.4255ZM20.0287 7.81943L18.6345 9.96487L17.4221 9.71034L17.81 9.1285C17.9405 8.93896 18.0865 8.76056 18.2465 8.59517C18.2731 8.55808 18.2875 8.51359 18.2875 8.46792C18.2875 8.42225 18.2731 8.37772 18.2465 8.34063C18.2259 8.29926 18.192 8.26602 18.1502 8.24623C18.1084 8.22645 18.0612 8.22127 18.0161 8.23155L16.0156 8.64366L10.2809 9.71034L9.8202 8.87397L19.5196 7.05579L20.0287 7.81943Z" fill="#021433"/>
<path d="M1.35733 6.9224C2.90922 2.41331 10.4747 -0.507895 18.3312 0.376953C26.1877 1.2618 31.2071 5.63756 29.6552 10.1466C28.1033 14.6557 20.5378 17.577 12.7419 16.68C4.94607 15.783 -0.182442 11.4194 1.35733 6.9224ZM13.1905 14.7891C19.5921 15.48 25.7997 13.2254 27.0606 9.77089C28.3215 6.31635 24.1629 2.94665 17.7735 2.26786C11.384 1.58907 5.17643 3.83151 3.91551 7.28606C2.6546 10.7406 6.8011 14.1103 13.1905 14.7891Z" fill="#FFE07D"/>
<path d="M7.35855 13.1164C9.20955 14.037 11.2161 14.6042 13.2752 14.7891C17.0754 15.2894 20.937 14.5901 24.3203 12.7891L23.7262 15.3709C20.2468 16.6768 16.5041 17.1258 12.8144 16.68C10.7892 16.4664 8.80734 15.9516 6.93424 15.1527L7.35855 13.1164Z" fill="url(#paint0_linear_37_5992)"/>
<path d="M18.3554 0.376938C21.2772 0.634849 24.0933 1.59549 26.5635 3.17694L26.0057 5.60118C23.7303 3.62224 20.8579 2.46161 17.8462 2.30421C15.1218 2.00098 12.3643 2.2441 9.73511 3.01935L10.2443 0.849683C12.9022 0.237157 15.6443 0.0773203 18.3554 0.376938Z" fill="url(#paint1_linear_37_5992)"/>
<path d="M15.4816 17.0558C22.3075 17.0558 28.4303 14.2557 29.8124 10.2194C30.0767 9.45129 30.1595 8.63249 30.0544 7.82706C29.9492 7.02163 29.6589 6.25147 29.2062 5.57697C27.4239 2.76485 23.3502 0.728481 18.2944 0.158784C10.4016 -0.738186 2.71487 2.25574 1.13873 6.84968C0.877098 7.61882 0.796778 8.438 0.904037 9.24329C1.0113 10.0486 1.30321 10.8182 1.75704 11.4921C3.52717 14.3042 7.60089 16.3406 12.6688 16.8982C13.6026 17.0047 14.5418 17.0573 15.4816 17.0558ZM15.4816 0.437585C16.4134 0.436042 17.3445 0.488625 18.2702 0.59513C23.1198 1.15271 27.1572 3.14061 28.8425 5.80727C29.2596 6.42658 29.5281 7.13384 29.627 7.87392C29.7258 8.61401 29.6523 9.36689 29.4123 10.0739C27.9089 14.4739 20.4162 17.3467 12.7294 16.4618C7.87977 15.9164 3.83028 13.9164 2.14502 11.2497C1.72784 10.6304 1.45938 9.92312 1.36054 9.18304C1.2617 8.44295 1.33514 7.69007 1.57518 6.98303C2.89672 3.11637 8.82543 0.437585 15.4695 0.437585H15.4816ZM15.4816 15.1285C21.0951 15.1285 26.1388 12.9588 27.2785 9.84362C27.4875 9.27412 27.559 8.66333 27.4874 8.06095C27.4158 7.45857 27.203 6.88162 26.8662 6.37697C25.4841 4.15879 22.0166 2.49818 17.8095 2.04969C11.3352 1.35878 5.00631 3.67394 3.72115 7.21334C3.5104 7.78191 3.43681 8.39217 3.50633 8.99453C3.57585 9.59689 3.78654 10.1743 4.12127 10.68C5.50342 12.8982 8.97094 14.5588 13.178 15.0073C13.9391 15.0889 14.704 15.1293 15.4695 15.1285H15.4816ZM15.4816 2.36485C16.2431 2.36313 17.004 2.40361 17.761 2.48607C21.8347 2.92244 25.181 4.49819 26.5025 6.60728C26.799 7.05888 26.9863 7.57328 27.0494 8.10978C27.1125 8.64628 27.0498 9.19011 26.8662 9.69817C25.6538 13.0557 19.519 15.2497 13.2265 14.5467C9.15281 14.1103 5.80653 12.5345 4.49711 10.4255C4.19808 9.97724 4.00924 9.4647 3.94604 8.92965C3.88282 8.3946 3.94704 7.85218 4.1334 7.34665C5.20033 4.41332 10.0379 2.36485 15.4695 2.36485H15.4816Z" fill="#021433"/>
<path d="M1.09023 8.57091C1.09023 12.4618 5.83079 15.9285 12.6931 16.7164C20.4889 17.6133 28.0665 14.68 29.6063 10.183C29.791 9.65303 29.8853 9.09578 29.8852 8.53455V11.0315C29.8941 11.6093 29.7996 12.1839 29.6063 12.7285C28.0665 17.2376 20.4889 20.1588 12.6931 19.2739C5.89141 18.4982 1.16297 15.0679 1.09023 11.2255V8.57091Z" fill="#ED7F07"/>
<path d="M12.6808 16.7285C13.1658 16.7285 13.6508 16.8254 14.1357 16.8497V19.3951C13.6508 19.3951 13.1658 19.3345 12.6808 19.2739C5.87916 18.4982 1.15072 15.08 1.07797 11.2255V8.55878C1.07797 12.4618 5.83066 15.9406 12.6808 16.7285Z" fill="#E0610A"/>
<path d="M4.90918 14.1103V16.6679C2.14487 15.1527 1.13857 13.4679 1.09007 11.1891V8.53455C1.09007 10.8497 2.09637 12.5709 4.90918 14.1103Z" fill="#021433"/>
<path d="M15.4819 19.6497C22.3078 19.6497 28.4305 16.8497 29.8127 12.8134C30.0162 12.246 30.1148 11.6463 30.1036 11.0437V8.53457C30.1036 8.4767 30.0807 8.42119 30.0397 8.38028C29.9988 8.33936 29.9433 8.31639 29.8854 8.31639C29.8275 8.31639 29.772 8.33936 29.7311 8.38028C29.6902 8.42119 29.6672 8.4767 29.6672 8.53457C29.6563 9.05028 29.5664 9.56128 29.4005 10.0497C27.8971 14.4497 20.4164 17.3224 12.7176 16.4497C6.09776 15.6861 1.30871 12.3528 1.30871 8.51034C1.31048 8.48122 1.30606 8.45205 1.29572 8.42478C1.28538 8.3975 1.26936 8.37275 1.24873 8.35213C1.2281 8.3315 1.2033 8.31549 1.17602 8.30515C1.14874 8.29481 1.1196 8.29036 1.09048 8.29213C1.03143 8.29204 0.974581 8.31463 0.931713 8.35523C0.888844 8.39584 0.863226 8.45138 0.860117 8.51034V11.1648C0.981359 15.1648 5.92804 18.6194 12.657 19.383C13.5926 19.5265 14.5359 19.6155 15.4819 19.6497ZM29.6551 10.6558V11.0437C29.6562 11.5961 29.566 12.1449 29.3883 12.6679C27.8849 17.0679 20.3922 19.9406 12.7054 19.0558C6.1705 18.3164 1.36932 15.0194 1.29657 11.2255V10.6436C2.64235 13.783 7.00709 16.2921 12.657 16.9346C20.3316 17.8194 27.8001 15.0073 29.6551 10.6558Z" fill="#021433"/>
<path d="M17.7737 3.98908C22.8416 4.53454 26.491 6.76482 27.1699 9.383C27.1699 9.51633 27.1093 9.63755 27.0608 9.77089C25.8484 13.2254 19.5923 15.48 13.1907 14.7891C8.12283 14.2436 4.47343 12.0254 3.8066 9.40726C3.83577 9.27606 3.8722 9.14655 3.91571 9.01938C5.17663 5.55271 11.3842 3.31029 17.7737 3.98908Z" fill="#FFCA36"/>
<path d="M17.7731 3.98908C11.3836 3.31029 5.17602 5.55271 3.91511 9.01937C3.87159 9.14655 3.83517 9.27605 3.80599 9.40726C3.62429 8.7057 3.66238 7.96528 3.91511 7.28605C5.12753 3.8315 11.3836 1.58906 17.7731 2.26785C23.9322 2.9224 27.9938 6.06178 27.1693 9.383C26.5025 6.76481 22.841 4.53453 17.7731 3.98908Z" fill="#ED7F07"/>
<path d="M18.3313 2.37695C24.1751 3.15271 28.0306 6.19516 27.1819 9.40728C26.5393 6.88607 23.1203 4.72848 18.3313 4.09818V2.37695Z" fill="#E0610A"/>
<path d="M24.1024 4.11029C26.3575 5.46787 27.5335 7.3224 27.0606 9.24967C26.5523 7.77152 25.4925 6.54686 24.1024 5.83148V4.11029Z" fill="#021433"/>
<path d="M3.80655 9.62546C3.85639 9.62459 3.90462 9.6076 3.94397 9.577C3.98332 9.5464 4.01166 9.50387 4.02477 9.45578V9.34666C4.04341 9.2603 4.06774 9.17528 4.09755 9.09212C5.30997 5.72242 11.4448 3.54061 17.7373 4.24364C22.5869 4.76485 26.2242 6.86181 26.9274 9.46788C26.9405 9.51596 26.9688 9.5585 27.0082 9.5891C27.0475 9.61969 27.0958 9.63672 27.1456 9.63759C27.1939 9.63611 27.2404 9.61862 27.2777 9.58791C27.315 9.5572 27.341 9.51498 27.3517 9.46788C27.4873 8.90413 27.4968 8.31742 27.3794 7.74961C27.262 7.18179 27.0208 6.64687 26.6728 6.18304C25.1815 4.0497 21.8231 2.54667 17.7736 2.08606C11.2993 1.39515 4.98259 3.71032 3.6853 7.24971C3.41888 7.96813 3.38077 8.75126 3.57619 9.49214C3.5869 9.53925 3.61296 9.58147 3.65026 9.61218C3.68756 9.64289 3.73401 9.66034 3.78231 9.66182L3.80655 9.62546ZM15.47 2.35273C16.2355 2.35145 17.0004 2.39192 17.7615 2.47395C21.714 2.89819 24.9148 4.36487 26.3333 6.38911C26.7837 6.98853 27.0378 7.71247 27.0607 8.46183C25.8483 6.03759 22.2959 4.24364 17.7979 3.75879C11.6145 3.10425 5.57667 5.17697 3.91566 8.4497C3.91821 8.07663 3.98805 7.70709 4.12179 7.3588C5.20084 4.41334 10.0505 2.36486 15.47 2.36486V2.35273Z" fill="#021433"/>
<path d="M16.8031 5.84365C20.7192 6.2679 23.7866 7.68608 25.29 9.48002L24.6353 12.4861C21.1685 14.4653 17.1467 15.249 13.1901 14.7164C11.2724 14.5351 9.39908 14.031 7.64937 13.2255L9.12852 6.37699C11.6317 5.72602 14.2339 5.54518 16.8031 5.84365Z" fill="url(#paint2_linear_37_5992)"/>
<path d="M15.4818 15.1406C21.0831 15.1406 26.1268 12.9709 27.2665 9.85576C27.3004 9.74822 27.3288 9.63899 27.3513 9.5285V9.44365C27.3634 9.40827 27.3634 9.36993 27.3513 9.33456C26.636 6.5588 22.7927 4.31636 17.7732 3.78302C11.2868 3.09211 4.97008 5.40728 3.68492 8.94667C3.64329 9.04863 3.61085 9.15411 3.58794 9.26183V9.35879V9.46787C4.30326 12.2558 8.15875 14.4861 13.166 15.0194C13.9352 15.1018 14.7082 15.1422 15.4818 15.1406ZM26.9391 9.39515C26.9391 9.48 26.9391 9.57698 26.8664 9.67395C25.654 13.0315 19.5191 15.2255 13.2267 14.5224C8.377 14.0133 4.73974 11.9285 4.04866 9.34665C4.05988 9.25472 4.08438 9.16489 4.1214 9.07999C5.33382 5.71029 11.4686 3.51635 17.749 4.2315C22.5502 4.70423 26.2359 6.81333 26.9391 9.39515Z" fill="#021433"/>
<path d="M9.97734 10.0134L16.1607 8.80123L17.167 8.60729L18.2582 8.37698C18.0897 8.56183 17.9318 8.7561 17.7853 8.95881L17.1912 9.85577L18.9008 10.2315L20.5254 7.73456V9.41942L18.9008 11.9164L17.1912 11.5406V10.3285L16.1849 10.5346L10.0016 11.6861L9.27415 10.3891V8.69214L9.97734 10.0134Z" fill="#ED7F07"/>
<path d="M13.7119 11.1527L10.0625 11.8436V10.1588L13.7119 9.46783V11.1527Z" fill="#E0610A"/>
<path d="M10.0625 10.0739V11.7588L9.97762 11.7709L9.2502 10.4739V8.77692L9.97762 10.086L10.0625 10.0739Z" fill="#021433"/>
<path d="M19.5674 9.29816V10.983L18.9006 12.0133L17.3608 11.6739V9.98904L18.9006 10.3285L19.5674 9.29816Z" fill="#E0610A"/>
<path d="M18.9005 12.2558C18.9382 12.2572 18.9754 12.2476 19.0077 12.2282C19.04 12.2089 19.0659 12.1805 19.0824 12.1467L20.707 9.64968C20.7175 9.61406 20.7175 9.5762 20.707 9.54059V7.84363C20.7083 7.79642 20.6934 7.75019 20.6647 7.71268C20.636 7.67517 20.5953 7.64868 20.5494 7.63759C20.5056 7.61973 20.4567 7.61848 20.4121 7.63411C20.3674 7.64974 20.33 7.68113 20.3069 7.72241L18.7671 10.1466L17.5547 9.86789L17.9669 9.24969C18.1021 9.0456 18.2563 8.85484 18.4277 8.67999C18.4543 8.6429 18.4687 8.59837 18.4687 8.55271C18.4687 8.50704 18.4543 8.46255 18.4277 8.42546C18.4043 8.38663 18.3699 8.35557 18.3289 8.33616C18.288 8.31676 18.2422 8.30987 18.1973 8.31637L16.0877 8.75272L10.0256 9.87998L9.3709 8.66786C9.34468 8.62586 9.30623 8.59289 9.26071 8.57339C9.21519 8.55388 9.1648 8.54879 9.1163 8.55877C9.06941 8.57229 9.02839 8.60112 8.99982 8.64067C8.97125 8.68022 8.95677 8.7282 8.95868 8.77695V10.4618C8.953 10.498 8.953 10.5348 8.95868 10.5709L9.69827 11.8679C9.71702 11.9108 9.75065 11.9455 9.79299 11.9656C9.83534 11.9856 9.88353 11.9897 9.92863 11.977L16.8758 10.6679V11.6618C16.875 11.7107 16.8917 11.7583 16.9228 11.796C16.9539 11.8338 16.9974 11.8593 17.0455 11.8679L18.755 12.2436L18.9005 12.2558ZM20.3069 9.46786L18.8035 11.783L17.4092 11.48V10.4012C17.4103 10.3693 17.4043 10.3376 17.3917 10.3083C17.3791 10.279 17.3603 10.2528 17.3365 10.2315L18.8762 10.5709C18.9199 10.5786 18.9649 10.5736 19.0058 10.5564C19.0466 10.5392 19.0816 10.5106 19.1066 10.4739L20.319 8.59514L20.3069 9.46786ZM17.1546 10.183L16.1119 10.3891L10.0498 11.5164L9.4194 10.4012V9.61331L9.74674 10.183C9.76549 10.2259 9.79916 10.2607 9.8415 10.2807C9.88384 10.3008 9.932 10.3048 9.9771 10.2921L17.6396 8.83757L17.5426 8.95879L16.9606 9.84362C16.9463 9.87607 16.9389 9.91119 16.9389 9.94668C16.9389 9.98216 16.9463 10.0172 16.9606 10.0497C16.9739 10.0832 16.9952 10.1129 17.0227 10.1362C17.0502 10.1594 17.083 10.1755 17.1183 10.183H17.1546Z" fill="#021433"/>
<path d="M9.24992 8.70425L9.97734 10.0134L16.1607 8.80124L17.167 8.6073L18.2582 8.37699C18.0897 8.56184 17.9318 8.75611 17.7853 8.95882L17.1912 9.85578L18.9008 10.2315L20.5254 7.73457L19.9192 6.65576L9.24992 8.70425Z" fill="#FFE07D"/>
<path d="M9.24992 8.70425L9.97734 10.0134L16.1607 8.80124L17.167 8.6073L18.2582 8.37699C18.0897 8.56184 17.9318 8.75611 17.7853 8.95882L17.1912 9.85578L18.9008 10.2315L20.5254 7.73457L19.9192 6.65576L9.24992 8.70425Z" fill="url(#paint3_linear_37_5992)"/>
<path d="M18.9009 10.4981C18.9369 10.4982 18.9723 10.4894 19.004 10.4725C19.0357 10.4555 19.0628 10.4311 19.0828 10.4012L20.7074 7.90421C20.7276 7.8692 20.7383 7.82949 20.7383 7.78906C20.7383 7.74863 20.7276 7.70892 20.7074 7.67391L20.1012 6.60723C20.0806 6.56586 20.0467 6.53258 20.0049 6.5128C19.9632 6.49301 19.9159 6.48787 19.8709 6.49815L9.20158 8.49814C9.16722 8.50342 9.13476 8.51731 9.1072 8.5385C9.07964 8.55969 9.05788 8.58751 9.04397 8.61936C9.02566 8.64839 9.01596 8.68199 9.01596 8.71631C9.01596 8.75063 9.02566 8.78427 9.04397 8.8133L9.78352 10.1224C9.80412 10.1638 9.83805 10.197 9.87983 10.2168C9.92161 10.2366 9.96881 10.2417 10.0139 10.2315L17.6764 8.76481L17.5794 8.88603L16.9974 9.78299C16.9823 9.81522 16.9744 9.85039 16.9744 9.88601C16.9744 9.92162 16.9823 9.95679 16.9974 9.98903C17.0319 10.0512 17.088 10.0987 17.155 10.1224L18.8646 10.486L18.9009 10.4981ZM20.271 7.77086L18.8039 10.0254L17.5915 9.75876L18.0038 9.12843C18.0644 9.04358 18.222 8.84965 18.4644 8.57087C18.4911 8.53377 18.5054 8.48925 18.5054 8.44358C18.5054 8.39791 18.4911 8.35342 18.4644 8.31633C18.4438 8.27495 18.4099 8.24168 18.3682 8.22189C18.3264 8.20211 18.2792 8.19697 18.2341 8.20724L16.1245 8.64359L10.0624 9.77085L9.5532 8.8739L19.7739 6.95872L20.271 7.77086Z" fill="#021433"/>
<defs>
<linearGradient id="paint0_linear_37_5992" x1="16.1607" y1="11.1649" x2="14.961" y2="17.2013" gradientUnits="userSpaceOnUse">
<stop stop-color="white"/>
<stop offset="1" stop-color="white"/>
</linearGradient>
<linearGradient id="paint1_linear_37_5992" x1="18.6949" y1="0.364822" x2="17.8466" y2="4.5952" gradientUnits="userSpaceOnUse">
<stop stop-color="white"/>
<stop offset="1" stop-color="white"/>
</linearGradient>
<linearGradient id="paint2_linear_37_5992" x1="21.1193" y1="-1.51393" x2="14.5993" y2="15.4084" gradientUnits="userSpaceOnUse">
<stop stop-color="white"/>
<stop offset="1" stop-color="white"/>
</linearGradient>
<linearGradient id="paint3_linear_37_5992" x1="17.6762" y1="0.364827" x2="12.0045" y2="16.4021" gradientUnits="userSpaceOnUse">
<stop stop-color="white"/>
<stop offset="1" stop-color="white"/>
</linearGradient>
</defs>
</svg>
