<svg width="420" height="195" viewBox="0 0 420 195" fill="none" xmlns="http://www.w3.org/2000/svg">
<path d="M2.35827 79.2466C1.05569 79.2466 -0.000264645 78.1907 -0.000264645 76.8881C-0.000264645 75.5855 1.05569 74.5295 2.35827 74.5295C3.66085 74.5295 4.7168 75.5855 4.7168 76.8881C4.7168 78.1907 3.66085 79.2466 2.35827 79.2466Z" fill="white"/>
<path opacity="0.5" d="M255.508 14.623C254.205 14.623 253.149 13.567 253.149 12.2644C253.149 10.9619 254.205 9.90591 255.508 9.90591C256.81 9.90591 257.866 10.9619 257.866 12.2644C257.866 13.567 256.81 14.623 255.508 14.623Z" fill="white"/>
<path d="M352.05 42.9253C350.747 42.9253 349.691 41.8694 349.691 40.5668C349.691 39.2642 350.747 38.2083 352.05 38.2083C353.352 38.2083 354.408 39.2642 354.408 40.5668C354.408 41.8694 353.352 42.9253 352.05 42.9253Z" fill="white"/>
<path d="M136.795 122.329C136.795 123.587 137.895 124.688 139.153 124.688C140.411 124.688 141.512 123.587 141.512 122.329C141.512 121.071 140.411 119.971 139.153 119.971C137.895 119.971 136.795 121.071 136.795 122.329Z" fill="white"/>
<path opacity="0.5" d="M77.6737 43.397C76.3711 43.397 75.3152 42.341 75.3152 41.0385C75.3152 39.7359 76.3711 38.6799 77.6737 38.6799C78.9763 38.6799 80.0322 39.7359 80.0322 41.0385C80.0322 42.341 78.9763 43.397 77.6737 43.397Z" fill="white"/>
<path d="M42.2958 181.607C40.9932 181.607 39.9372 180.551 39.9372 179.248C39.9372 177.946 40.9932 176.89 42.2958 176.89C43.5983 176.89 44.6543 177.946 44.6543 179.248C44.6543 180.551 43.5983 181.607 42.2958 181.607Z" fill="white"/>
<path opacity="0.5" d="M115.254 12.2644C113.951 12.2644 112.895 11.2085 112.895 9.90589C112.895 8.60331 113.951 7.54736 115.254 7.54736C116.556 7.54736 117.612 8.60331 117.612 9.90589C117.612 11.2085 116.556 12.2644 115.254 12.2644Z" fill="white"/>
<path d="M312.112 88.0518C312.112 88.9952 312.898 89.6241 313.684 89.6241C314.628 89.6241 315.257 88.838 315.257 88.0518C315.257 87.1084 314.471 86.4794 313.684 86.4794C312.741 86.3222 312.112 87.1084 312.112 88.0518Z" fill="white"/>
<path opacity="0.5" d="M73.5858 126.889C73.5858 127.518 74.0575 127.99 74.6864 127.99C75.3154 127.99 75.7871 127.518 75.7871 126.889C75.7871 126.26 75.3154 125.788 74.6864 125.788C74.0575 125.788 73.5858 126.26 73.5858 126.889Z" fill="white"/>
<path d="M417.145 193.557C417.145 194.186 417.617 194.657 418.246 194.657C418.875 194.657 419.347 194.186 419.347 193.557C419.347 192.928 418.875 192.456 418.246 192.456C417.617 192.613 417.145 193.085 417.145 193.557Z" fill="white"/>
<path d="M53.1455 23.4281C52.5376 23.4281 52.0448 22.9353 52.0448 22.3274C52.0448 21.7195 52.5376 21.2268 53.1455 21.2268C53.7533 21.2268 54.2461 21.7195 54.2461 22.3274C54.2461 22.9353 53.7533 23.4281 53.1455 23.4281Z" fill="white"/>
<path d="M182.235 21.6985C182.235 22.013 182.55 22.3275 182.864 22.3275C183.179 22.3275 183.493 22.013 183.493 21.6985C183.493 21.384 183.179 21.0696 182.864 21.0696C182.55 21.0696 182.235 21.384 182.235 21.6985Z" fill="white"/>
<path d="M334.282 0.628944C334.282 0.943415 334.597 1.25789 334.911 1.25789C335.226 1.25789 335.54 0.943415 335.54 0.628944C335.54 0.314473 335.226 0 334.911 0C334.597 0 334.282 0.157238 334.282 0.628944Z" fill="white"/>
<path opacity="0.5" d="M331.609 7.07557C331.609 7.39004 331.924 7.70451 332.238 7.70451C332.553 7.70451 332.867 7.39004 332.867 7.07557C332.867 6.7611 332.553 6.44662 332.238 6.44662C331.924 6.44662 331.609 6.7611 331.609 7.07557Z" fill="white"/>
<path d="M399.063 19.8115C399.063 20.126 399.378 20.4405 399.692 20.4405C400.007 20.4405 400.321 20.126 400.321 19.8115C400.321 19.4971 400.007 19.1826 399.692 19.1826C399.378 19.1826 399.063 19.4971 399.063 19.8115Z" fill="white"/>
<path d="M18.7108 101.26C17.8425 101.26 17.1385 100.556 17.1385 99.6873C17.1385 98.8189 17.8425 98.1149 18.7108 98.1149C19.5792 98.1149 20.2832 98.8189 20.2832 99.6873C20.2832 100.556 19.5792 101.26 18.7108 101.26Z" fill="white"/>
<path d="M79.8758 25.0005C79.8758 25.9439 80.662 26.5728 81.4482 26.5728C82.3916 26.5728 83.0205 25.7866 83.0205 25.0005C83.0205 24.057 82.2343 23.4281 81.4482 23.4281C80.662 23.4281 79.8758 24.2143 79.8758 25.0005Z" fill="white"/>
</svg>
