<svg width="18" height="18" viewBox="0 0 18 18" fill="none" xmlns="http://www.w3.org/2000/svg">
<g id="Group 547">
<g id="Group 546">
<g id="Group">
<g id="Group_2">
<path id="Vector" d="M14.1268 3.18506C13.8981 3.18506 13.7119 3.37122 13.7119 3.59998C13.7119 3.82874 13.8981 4.0149 14.1268 4.0149C14.3556 4.0149 14.5418 3.82877 14.5418 3.59998C14.5418 3.37119 14.3556 3.18506 14.1268 3.18506Z" fill="#456AE7"/>
</g>
</g>
</g>
<g id="Group_3">
<g id="Group_4">
<path id="Vector_2" d="M9.15889 4.88965C7.13061 4.88965 5.48047 6.53979 5.48047 8.56807C5.48047 10.5963 7.13061 12.2465 9.15889 12.2465C11.1872 12.2465 12.8373 10.5964 12.8373 8.5681C12.8373 6.53982 11.1872 4.88965 9.15889 4.88965Z" fill="#456AE7"/>
</g>
</g>
<g id="Group_5">
<g id="Group_6">
<path id="Vector_3" d="M13.019 0.0227051H5.29849C2.71506 0.0227051 0.613281 2.12449 0.613281 4.70795V12.4284C0.613281 15.0119 2.71506 17.1136 5.29849 17.1136H13.019C15.6024 17.1136 17.7042 15.0118 17.7042 12.4284V4.70795C17.7042 2.12449 15.6024 0.0227051 13.019 0.0227051ZM9.15874 13.2559C6.5739 13.2559 4.47105 11.153 4.47105 8.56816C4.47105 5.98333 6.57394 3.88051 9.15874 3.88051C11.7435 3.88051 13.8465 5.98336 13.8465 8.56816C13.8465 11.153 11.7435 13.2559 9.15874 13.2559ZM14.1268 5.02433C13.3415 5.02433 12.7026 4.38543 12.7026 3.60011C12.7026 2.8148 13.3415 2.17586 14.1268 2.17586C14.9121 2.17586 15.551 2.81477 15.551 3.60008C15.551 4.38539 14.9121 5.02433 14.1268 5.02433Z" fill="#456AE7"/>
</g>
</g>
</g>
</svg>
