<svg width="24" height="15" viewBox="0 0 24 15" fill="none" xmlns="http://www.w3.org/2000/svg">
<path d="M12.363 10.447C12.363 8.59898 11.484 7.23298 9.66798 6.72098C10.993 6.08998 11.684 5.13399 11.684 3.64699C11.684 0.714999 9.49198 0 6.96298 0H0V14.721H7.15798C9.84198 14.721 12.363 13.438 12.363 10.447ZM3.24599 2.51299H6.29199C7.46298 2.51299 8.51698 2.84099 8.51698 4.19499C8.51698 5.44499 7.69698 5.94799 6.53698 5.94799H3.24599V2.51299ZM3.24499 12.221V8.16698H6.78298C8.21198 8.16698 9.11598 8.76098 9.11598 10.269C9.11598 11.756 8.03698 12.221 6.71598 12.221H3.24499Z" fill="#456AE7"/>
<path d="M18.7962 14.9999C21.3502 14.9999 23.0042 13.8529 23.8002 11.4149H21.2082C20.9292 12.3249 19.7792 12.8059 18.8872 12.8059C17.1662 12.8059 16.2622 11.8009 16.2622 10.0929H23.9752C24.2192 6.67496 22.3152 3.76196 18.7952 3.76196C15.5362 3.76196 13.3242 6.20396 13.3242 9.40295C13.3242 12.7229 15.4202 14.9999 18.7962 14.9999V14.9999ZM18.7042 5.97396C20.1792 5.97396 20.9212 6.83796 21.0452 8.25095H16.2662C16.3632 6.84996 17.2962 5.97396 18.7042 5.97396Z" fill="#456AE7"/>
<path d="M15.667 0.772949H21.655V2.22295H15.667V0.772949Z" fill="#456AE7"/>
</svg>
