<svg width="1920" height="471" viewBox="0 0 1920 471" fill="none" xmlns="http://www.w3.org/2000/svg">
<path opacity="0.13" d="M1482.61 387.96L1510.94 437.501L1482.61 387.96ZM1482.61 387.96C1481.19 385.491 1478.61 384 1475.83 384H1419.16C1416.39 384 1413.81 385.49 1412.39 387.96C1412.39 387.961 1412.39 387.961 1412.39 387.961L1384.06 437.501C1384.06 437.502 1384.06 437.502 1384.06 437.503C1382.65 439.974 1382.65 443.02 1384.06 445.493C1384.06 445.493 1384.06 445.494 1384.06 445.495L1412.39 495.038C1413.81 497.509 1416.39 499 1419.16 499H1475.83C1478.61 499 1481.19 497.509 1482.6 495.041C1482.6 495.041 1482.6 495.04 1482.61 495.04L1510.94 445.495C1512.35 443.022 1512.35 439.975 1510.94 437.503L1482.61 387.96Z" stroke="url(#paint0_linear_1359_2)" stroke-width="10"/>
<path d="M294.677 56.0238L272.864 17.974C271.098 14.8944 267.839 13 264.312 13H220.687C217.16 13 213.902 14.8944 212.135 17.974L190.323 56.0238C188.559 59.1032 188.559 62.8928 190.323 65.9727L212.135 104.026C213.902 107.105 217.16 109 220.687 109H264.312C267.839 109 271.098 107.105 272.864 104.026L294.677 65.9727C296.441 62.8928 296.441 59.1032 294.677 56.0238Z" stroke="url(#paint1_linear_1359_2)" stroke-width="0.8621" stroke-miterlimit="10"/>
<path d="M1952.17 27.8899L1938.51 4.10875C1937.41 2.18398 1935.37 1 1933.16 1H1905.84C1903.63 1 1901.59 2.18398 1900.49 4.10875L1886.83 27.8899C1885.72 29.8145 1885.72 32.183 1886.83 34.1079L1900.49 57.8911C1901.59 59.8159 1903.63 61 1905.84 61H1933.16C1935.37 61 1937.41 59.8159 1938.51 57.8911L1952.17 34.1079C1953.28 32.183 1953.28 29.8145 1952.17 27.8899Z" stroke="url(#paint2_linear_1359_2)" stroke-width="0.8621" stroke-miterlimit="10"/>
<path opacity="0.15" d="M2018.33 278.137L1998.59 206.485C1996.99 200.685 1992.02 195.716 1985.55 193.44L1905.56 165.292C1899.09 163.016 1892.11 163.78 1887.23 167.3L1826.97 210.804C1822.1 214.325 1820.08 220.06 1821.67 225.858L1841.41 297.515C1843.01 303.316 1847.97 308.285 1854.44 310.561L1934.44 338.709C1940.91 340.985 1947.89 340.22 1952.77 336.7L2013.03 293.192C2017.9 289.669 2019.92 283.935 2018.33 278.137Z" fill="url(#paint3_linear_1359_2)"/>
<path opacity="0.15" d="M86.4007 312.47L69.8291 231.816C68.4861 225.287 63.6774 219.87 57.2088 217.594L-22.7861 189.446C-29.2543 187.17 -36.3941 188.383 -41.5319 192.631L-104.956 245.137C-110.086 249.387 -112.42 256.018 -111.082 262.545L-94.5148 343.204C-93.1693 349.734 -88.3624 355.151 -81.8943 357.427L-1.89973 385.575C4.56926 387.851 11.7108 386.638 16.8457 382.389L80.2751 329.879C85.4049 325.627 87.7382 318.996 86.4007 312.47Z" fill="url(#paint4_linear_1359_2)"/>
<defs>
<linearGradient id="paint0_linear_1359_2" x1="1447.5" y1="379" x2="1447.5" y2="504" gradientUnits="userSpaceOnUse">
<stop stop-color="#6D54DB"/>
<stop offset="1" stop-color="#59A2DD"/>
</linearGradient>
<linearGradient id="paint1_linear_1359_2" x1="188.243" y1="60.9944" x2="296.698" y2="60.9944" gradientUnits="userSpaceOnUse">
<stop stop-color="#A728DA"/>
<stop offset="0.697" stop-color="#548EF7"/>
<stop offset="1" stop-color="#7DC6FD"/>
</linearGradient>
<linearGradient id="paint2_linear_1359_2" x1="1885.53" y1="30.9965" x2="1953.44" y2="30.9965" gradientUnits="userSpaceOnUse">
<stop stop-color="#A728DA"/>
<stop offset="0.697" stop-color="#548EF7"/>
<stop offset="1" stop-color="#7DC6FD"/>
</linearGradient>
<linearGradient id="paint3_linear_1359_2" x1="2029.57" y1="297.829" x2="2039.15" y2="168.468" gradientUnits="userSpaceOnUse">
<stop offset="0.0416667" stop-color="#4E9CDB"/>
<stop offset="0.46875" stop-color="#5761D7"/>
<stop offset="0.9999" stop-color="#7628DA"/>
</linearGradient>
<linearGradient id="paint4_linear_1359_2" x1="96.8716" y1="334.351" x2="102.044" y2="186.144" gradientUnits="userSpaceOnUse">
<stop offset="0.0416667" stop-color="#4E9CDB"/>
<stop offset="0.46875" stop-color="#5761D7"/>
<stop offset="0.9999" stop-color="#7628DA"/>
</linearGradient>
</defs>
</svg>
