<svg width="139" height="92" viewBox="0 0 139 92" fill="none" xmlns="http://www.w3.org/2000/svg">
<path opacity="0.13" d="M104.605 8.95998L132.941 58.5008C132.941 58.5013 132.941 58.5018 132.941 58.5022C132.941 58.5025 132.942 58.5027 132.942 58.503C134.353 60.9752 134.353 64.022 132.94 66.4948L104.605 116.04C103.193 118.508 100.607 120 97.8346 120H41.1638C38.3931 120 35.8075 118.509 34.3925 116.039C34.3924 116.039 34.3923 116.038 34.3922 116.038L6.05972 66.4946C6.05936 66.4939 6.059 66.4933 6.05864 66.4927C4.64704 64.0202 4.64723 60.9743 6.05855 58.5028C6.05889 58.5022 6.05923 58.5016 6.05957 58.501L34.3922 8.96139C34.3924 8.96103 34.3926 8.96067 34.3928 8.96031C35.8078 6.49041 38.3931 5 41.1638 5H97.8349C100.607 5 103.193 6.49148 104.605 8.95998Z" stroke="url(#paint0_linear_37_4766)" stroke-width="10"/>
<defs>
<linearGradient id="paint0_linear_37_4766" x1="69.5" y1="0" x2="69.5" y2="125" gradientUnits="userSpaceOnUse">
<stop stop-color="#6D54DB"/>
<stop offset="1" stop-color="#59A2DD"/>
</linearGradient>
</defs>
</svg>
